<svg viewBox="0 0 420 90" fill="none" xmlns="http://www.w3.org/2000/svg">
  <defs>
    <linearGradient id="railGradLight" x1="10" y1="10" x2="70" y2="70" gradientUnits="userSpaceOnUse">
      <stop offset="0%" stop-color="#00b06a"/>
      <stop offset="100%" stop-color="#0088c0"/>
    </linearGradient>
    <linearGradient id="shieldGradLight" x1="20" y1="5" x2="55" y2="75" gradientUnits="userSpaceOnUse">
      <stop offset="0%" stop-color="#1a2030"/>
      <stop offset="100%" stop-color="#4a5570"/>
    </linearGradient>
    <linearGradient id="restGradLight" x1="90" y1="20" x2="280" y2="65" gradientUnits="userSpaceOnUse">
      <stop offset="0%" stop-color="#1a2030"/>
      <stop offset="100%" stop-color="#3a4560"/>
    </linearGradient>
    <linearGradient id="railWordGradLight" x1="260" y1="20" x2="400" y2="65" gradientUnits="userSpaceOnUse">
      <stop offset="0%" stop-color="#00b06a"/>
      <stop offset="100%" stop-color="#0088c0"/>
    </linearGradient>
  </defs>

  <!-- Background -->
  <rect width="420" height="90" fill="#f4f6f8" rx="8"/>

  <!-- Icon scaled down -->
  <g transform="translate(8, 6) scale(0.32)">
    <path d="M120 22L42 62V128C42 172 74 210 120 224C166 210 198 172 198 128V62L120 22Z"
          fill="none" stroke="url(#shieldGradLight)" stroke-width="5" stroke-linejoin="round" opacity="0.8"/>
    <path d="M120 38L56 72V128C56 164 82 196 120 208C158 196 184 164 184 128V72L120 38Z"
          fill="none" stroke="url(#railGradLight)" stroke-width="1.5" opacity="0.2"/>
    <line x1="88" y1="70" x2="88" y2="185" stroke="url(#railGradLight)" stroke-width="6" stroke-linecap="round"/>
    <line x1="152" y1="70" x2="152" y2="185" stroke="url(#railGradLight)" stroke-width="6" stroke-linecap="round"/>
    <line x1="82" y1="90" x2="158" y2="90" stroke="url(#railGradLight)" stroke-width="3.5" stroke-linecap="round" opacity="0.6"/>
    <line x1="82" y1="115" x2="158" y2="115" stroke="url(#railGradLight)" stroke-width="3.5" stroke-linecap="round" opacity="0.6"/>
    <line x1="82" y1="140" x2="158" y2="140" stroke="url(#railGradLight)" stroke-width="3.5" stroke-linecap="round" opacity="0.6"/>
    <line x1="82" y1="165" x2="158" y2="165" stroke="url(#railGradLight)" stroke-width="3.5" stroke-linecap="round" opacity="0.6"/>
    <text x="65" y="134" font-family="monospace" font-size="22" font-weight="700" fill="url(#shieldGradLight)" opacity="0.3">&lt;</text>
    <text x="163" y="134" font-family="monospace" font-size="22" font-weight="700" fill="url(#shieldGradLight)" opacity="0.3">&gt;</text>
  </g>

  <!-- Wordmark -->
  <text x="88" y="60" font-family="'Outfit', 'Helvetica Neue', Arial, sans-serif" font-weight="800" font-size="48" letter-spacing="-1">
    <tspan fill="url(#restGradLight)">REST</tspan><tspan fill="url(#railWordGradLight)">RAIL</tspan>
  </text>
</svg>
